Jump_normalized_precision_landing09_filtered_grf
version=1
nRows=20
nColumns=37
inDegrees=yes
endheader
time		1_ground_force_vx		1_ground_force_vy		1_ground_force_vz		1_ground_force_px		1_ground_force_py		1_ground_force_pz		1_ground_torque_x		1_ground_torque_y		1_ground_torque_z		2_ground_force_vx		2_ground_force_vy		2_ground_force_vz		2_ground_force_px		2_ground_force_py		2_ground_force_pz		2_ground_torque_x		2_ground_torque_y		2_ground_torque_z		3_ground_force_vx		3_ground_force_vy		3_ground_force_vz		3_ground_force_px		3_ground_force_py		3_ground_force_pz		3_ground_torque_x		3_ground_torque_y		3_ground_torque_z		4_ground_force_vx		4_ground_force_vy		4_ground_force_vz		4_ground_force_px		4_ground_force_py		4_ground_force_pz		4_ground_torque_x		4_ground_torque_y		4_ground_torque_z		
0.652833		-0.000000		0.000000		0.000000		0.092013		0.000000		0.304222		0.000000		0.000000		-0.000000		0.000000		0.000000		0.000000		-0.191147		0.000000		0.315249		0.000000		-0.000000		0.000000		-56.101323		497.497189		61.488506		0.381497		1.274512		1.881943		3.254624		-28.861468		-3.567151		69.980976		636.604649		42.730697		-0.351548		1.266716		1.872370		3.403083		30.957252		2.077935		
0.656192		0.000000		0.000000		0.000000		0.092013		0.000000		0.304222		0.000000		0.000000		-0.000000		0.000000		0.000000		0.000000		-0.191147		0.000000		0.315249		0.000000		-0.000000		0.000000		-54.679995		495.569631		58.653126		0.381443		1.274563		1.882011		3.181787		-28.836834		-3.412980		69.632508		634.015163		39.408304		-0.351513		1.266710		1.872456		3.396373		30.924525		1.922164		
0.659551		0.000000		-0.000000		-0.000000		0.092013		0.000000		0.304222		-0.000000		-0.000000		0.000000		-0.000000		0.000000		0.000000		-0.191147		0.000000		0.315249		0.000000		-0.000000		0.000000		-53.309361		493.483500		55.898893		0.381403		1.274604		1.882075		3.113452		-28.821158		-3.264689		69.302797		631.404659		35.958299		-0.351496		1.266705		1.872545		3.390036		30.885981		1.758946		
0.662909		0.000000		-0.000000		-0.000000		0.092013		0.000000		0.304222		-0.000000		-0.000000		0.000000		-0.000000		-0.000000		-0.000000		-0.191147		0.000000		0.315249		-0.000000		0.000000		-0.000000		-51.992956		491.311014		53.172811		0.381377		1.274636		1.882136		3.049473		-28.816217		-3.118673		69.001119		628.860418		32.409542		-0.351497		1.266704		1.872630		3.385516		30.854820		1.590162		
0.666268		0.000000		-0.000000		-0.000000		0.092013		0.000000		0.304222		-0.000000		-0.000000		0.000000		-0.000000		-0.000000		-0.000000		-0.191147		0.000000		0.315249		-0.000000		0.000000		-0.000000		-50.684529		489.135884		50.379334		0.381358		1.274665		1.882198		2.986407		-28.820620		-2.968422		68.728917		626.377885		28.759221		-0.351511		1.266706		1.872700		3.383731		30.838463		1.415899		
0.669626		0.000000		-0.000000		-0.000000		0.092013		0.000000		0.304222		-0.000000		-0.000000		0.000000		-0.000000		-0.000000		-0.000000		-0.191147		0.000000		0.315249		-0.000000		0.000000		-0.000000		-49.325281		487.044575		47.441949		0.381348		1.274689		1.882256		2.919948		-28.831979		-2.808457		68.474200		623.875763		24.988912		-0.351531		1.266710		1.872756		3.384397		30.835604		1.235096		
0.672985		-0.000000		0.000000		-0.000000		0.092013		0.000000		0.304222		-0.000000		-0.000000		-0.000000		-0.000000		-0.000000		-0.000000		-0.191147		0.000000		0.315249		-0.000000		0.000000		-0.000000		-47.878935		485.107512		44.334065		0.381350		1.274703		1.882309		2.847266		-28.848398		-2.636460		68.219054		621.233576		21.044725		-0.351550		1.266717		1.872800		3.386403		30.838113		1.044663		
0.676343		-0.000000		0.000000		0.000000		0.092013		0.000000		0.304222		0.000000		0.000000		-0.000000		0.000000		-0.000000		-0.000000		-0.191147		0.000000		0.315249		-0.000000		0.000000		0.000000		-46.349300		483.362421		41.060257		0.381366		1.274700		1.882351		2.768256		-28.869304		-2.452361		67.944398		618.327631		16.891456		-0.351563		1.266727		1.872836		3.388289		30.835104		0.842348		
0.679702		-0.000000		0.000000		0.000000		0.092013		0.000000		0.304222		0.000000		0.000000		-0.000000		0.000000		0.000000		0.000000		-0.191147		0.000000		0.315249		0.000000		-0.000000		0.000000		-44.771177		481.803599		37.648912		0.381392		1.274679		1.882382		2.685085		-28.895471		-2.257935		67.633680		615.064974		12.512625		-0.351571		1.266740		1.872872		3.388733		30.817353		0.626929		
0.683061		-0.000000		0.000000		0.000000		0.092013		0.000000		0.304222		0.000000		0.000000		-0.000000		0.000000		0.000000		0.000000		-0.191147		0.000000		0.315249		0.000000		-0.000000		0.000000		-43.187564		480.393100		34.114098		0.381418		1.274641		1.882405		2.600690		-28.928557		-2.054298		67.268532		611.386808		7.909095		-0.351574		1.266759		1.872913		3.386545		30.779453		0.398170		
0.686419		-0.000000		0.000000		0.000000		0.092013		0.000000		0.304222		0.000000		0.000000		-0.000000		0.000000		0.000000		0.000000		-0.191147		0.000000		0.315249		0.000000		-0.000000		0.000000		-41.636577		479.071913		30.450806		0.381434		1.274599		1.882431		2.517864		-28.970641		-1.841431		66.821428		607.254370		3.108010		-0.351573		1.266782		1.872961		3.380307		30.719283		0.157222		
0.689778		0.000000		-0.000000		0.000000		0.092013		0.000000		0.304222		-0.000000		-0.000000		0.000000		0.000000		0.000000		0.000000		-0.191147		0.000000		0.315249		0.000000		-0.000000		0.000000		-40.143098		477.769834		26.628943		0.381426		1.274567		1.882470		2.438636		-29.023868		-1.617666		66.256620		602.631768		-1.851922		-0.351570		1.266806		1.873017		3.368288		30.635997		-0.094153		
0.693136		0.000000		-0.000000		-0.000000		0.092013		0.000000		0.304222		-0.000000		-0.000000		0.000000		-0.000000		-0.000000		0.000000		-0.191147		0.000000		0.315249		-0.000000		0.000000		-0.000000		-38.710686		476.408961		22.590724		0.381385		1.274564		1.882535		2.363604		-29.088678		-1.379344		65.542091		597.471485		-6.905157		-0.351568		1.266830		1.873081		3.348883		30.527896		-0.352826		
0.696495		0.000000		-0.000000		-0.000000		0.092013		0.000000		0.304222		-0.000000		-0.000000		0.000000		-0.000000		-0.000000		-0.000000		-0.191147		0.000000		0.315249		-0.000000		0.000000		-0.000000		-37.313176		474.901144		18.301893		0.381315		1.274590		1.882628		2.291189		-29.160974		-1.123814		64.661989		591.716785		-12.004541		-0.351567		1.266850		1.873150		3.321191		30.391956		-0.616581		
0.699854		0.000000		-0.000000		-0.000000		0.092013		0.000000		0.304222		-0.000000		-0.000000		0.000000		-0.000000		-0.000000		-0.000000		-0.191147		0.000000		0.315249		-0.000000		0.000000		-0.000000		-35.896567		473.150631		13.747815		0.381227		1.274639		1.882745		2.217639		-29.230614		-0.849314		63.628196		585.324610		-17.092253		-0.351567		1.266866		1.873219		3.285620		30.224887		-0.882614		
0.703212		0.000000		-0.000000		-0.000000		0.092013		0.000000		0.304222		-0.000000		-0.000000		0.000000		-0.000000		-0.000000		-0.000000		-0.191147		0.000000		0.315249		-0.000000		0.000000		-0.000000		-34.393839		471.064645		8.962481		0.381130		1.274697		1.882876		2.137955		-29.281888		-0.557108		62.487979		578.307129		-22.106859		-0.351567		1.266879		1.873285		3.244342		30.025400		-1.147785		
0.706571		-0.000000		0.000000		0.000000		0.092013		0.000000		0.304222		0.000000		0.000000		-0.000000		-0.000000		-0.000000		-0.000000		-0.191147		0.000000		0.315249		-0.000000		0.000000		-0.000000		-32.743376		468.563878		3.992381		0.381038		1.274750		1.883011		2.047262		-29.296720		-0.249617		61.317178		570.732938		-26.988638		-0.351565		1.266890		1.873347		3.200978		29.794318		-1.408908		
0.709929		-0.000000		0.000000		0.000000		0.092013		0.000000		0.304222		0.000000		0.000000		-0.000000		0.000000		0.000000		-0.000000		-0.191147		0.000000		0.315249		0.000000		-0.000000		0.000000		-30.910998		465.606803		-1.094582		0.380960		1.274787		1.883138		1.942580		-29.260760		0.068792		60.204907		562.717713		-31.683644		-0.351561		1.266905		1.873406		3.159798		29.533715		-1.662891		
0.713288		-0.000000		0.000000		0.000000		0.092013		0.000000		0.304222		0.000000		0.000000		-0.000000		0.000000		0.000000		0.000000		-0.191147		0.000000		0.315249		0.000000		-0.000000		0.000000		-28.906865		462.218455		-6.210689		0.380901		1.274806		1.883253		1.824318		-29.170739		0.391965		59.222357		554.390446		-36.176086		-0.351554		1.266924		1.873462		3.124159		29.245781		-1.908405		
0.716646		-0.000000		0.000000		0.000000		0.092013		0.000000		0.304222		0.000000		0.000000		-0.000000		0.000000		0.000000		0.000000		-0.191147		0.000000		0.315249		0.000000		-0.000000		0.000000		-26.784305		458.490724		-11.277345		0.380860		1.274812		1.883355		1.696298		-29.037066		0.714220		58.393884		545.848017		-40.457103		-0.351548		1.266948		1.873519		3.095124		28.932263		-2.144404		
